<svg width="314" height="77" viewBox="0 0 314 77" fill="none" xmlns="http://www.w3.org/2000/svg">
<path d="M11.1765 25.8529C11.1765 24.1961 12.5196 22.8529 14.1765 22.8529H25.8138C27.4707 22.8529 28.8138 24.1961 28.8138 25.8529V33.3685C28.8138 34.1642 28.4978 34.9272 27.9352 35.4898L16.2978 47.1272C14.4079 49.0171 11.1765 47.6786 11.1765 45.0059V25.8529Z" fill="url(#paint0_linear_1257_33352)"/>
<path d="M47.186 46.309C47.186 47.9658 45.8429 49.309 44.186 49.309H32.5486C30.8918 49.309 29.5486 47.9658 29.5486 46.309V38.7933C29.5486 37.9977 29.8647 37.2346 30.4273 36.672L42.0647 25.0346C43.9546 23.1447 47.186 24.4832 47.186 27.156V46.309Z" fill="url(#paint1_linear_1257_33352)"/>
<path d="M50.1256 37.6112C50.1256 35.9544 51.4688 34.6112 53.1256 34.6112H60.5204C63.1931 34.6112 64.5316 37.8426 62.6417 39.7325L55.2469 47.1273C53.357 49.0172 50.1256 47.6787 50.1256 45.006V37.6112Z" fill="url(#paint2_linear_1257_33352)"/>
<path d="M87.0288 51.3546C85.0902 51.3546 83.2343 51.0827 81.4612 50.539C79.6881 49.9716 78.2814 49.2505 77.2412 48.3758L78.837 44.7941C79.8299 45.5743 81.0593 46.2244 82.5251 46.7445C83.9908 47.2646 85.4921 47.5247 87.0288 47.5247C88.3291 47.5247 89.3811 47.3828 90.1849 47.0991C90.9887 46.8155 91.5798 46.4372 91.958 45.9644C92.3363 45.4679 92.5254 44.9123 92.5254 44.2976C92.5254 43.5411 92.2535 42.9382 91.7098 42.4891C91.166 42.0162 90.4568 41.6498 89.5821 41.3897C88.731 41.106 87.7735 40.846 86.7096 40.6096C85.6694 40.3731 84.6173 40.1013 83.5535 39.7939C82.5132 39.4629 81.5558 39.0492 80.681 38.5527C79.8299 38.0326 79.1325 37.347 78.5887 36.4959C78.045 35.6448 77.7731 34.5573 77.7731 33.2334C77.7731 31.8858 78.1277 30.6565 78.837 29.5453C79.5699 28.4105 80.6692 27.5122 82.135 26.8502C83.6244 26.1646 85.5039 25.8218 87.7735 25.8218C89.2629 25.8218 90.7405 26.0109 92.2063 26.3892C93.672 26.7674 94.9487 27.3112 96.0362 28.0204L94.5822 31.6021C93.4711 30.9402 92.3245 30.4555 91.1424 30.1482C89.9603 29.8172 88.8255 29.6517 87.738 29.6517C86.4614 29.6517 85.4211 29.8054 84.6173 30.1127C83.8372 30.4201 83.2579 30.822 82.8797 31.3184C82.5251 31.8149 82.3477 32.3823 82.3477 33.0206C82.3477 33.7772 82.6078 34.3918 83.1279 34.8647C83.6717 35.3139 84.3691 35.6685 85.2202 35.9285C86.0949 36.1886 87.0642 36.4486 88.1281 36.7087C89.192 36.9451 90.244 37.217 91.2842 37.5243C92.3481 37.8317 93.3056 38.2336 94.1567 38.7301C95.0314 39.2265 95.7288 39.9003 96.249 40.7514C96.7927 41.6025 97.0646 42.6782 97.0646 43.9785C97.0646 45.3024 96.6981 46.5318 95.9653 47.6665C95.256 48.7777 94.1567 49.6761 92.6673 50.3617C91.1779 51.0236 89.2984 51.3546 87.0288 51.3546ZM109.721 51.2482C107.783 51.2482 106.057 50.8345 104.544 50.0071C103.031 49.156 101.837 47.9975 100.962 46.5318C100.087 45.066 99.65 43.3993 99.65 41.5316C99.65 39.6403 100.087 37.9735 100.962 36.5314C101.837 35.0656 103.031 33.919 104.544 33.0916C106.057 32.2641 107.783 31.8504 109.721 31.8504C111.684 31.8504 113.421 32.2641 114.934 33.0916C116.471 33.919 117.665 35.0538 118.516 36.4959C119.391 37.9381 119.828 39.6166 119.828 41.5316C119.828 43.3993 119.391 45.066 118.516 46.5318C117.665 47.9975 116.471 49.156 114.934 50.0071C113.421 50.8345 111.684 51.2482 109.721 51.2482ZM109.721 47.4538C110.809 47.4538 111.778 47.2174 112.629 46.7445C113.48 46.2717 114.142 45.5861 114.615 44.6877C115.112 43.7893 115.36 42.7373 115.36 41.5316C115.36 40.3022 115.112 39.2502 114.615 38.3754C114.142 37.4771 113.48 36.7914 112.629 36.3186C111.778 35.8458 110.821 35.6094 109.757 35.6094C108.669 35.6094 107.7 35.8458 106.849 36.3186C106.021 36.7914 105.359 37.4771 104.863 38.3754C104.366 39.2502 104.118 40.3022 104.118 41.5316C104.118 42.7373 104.366 43.7893 104.863 44.6877C105.359 45.5861 106.021 46.2717 106.849 46.7445C107.7 47.2174 108.657 47.4538 109.721 47.4538ZM132.081 51.2482C130.474 51.2482 129.055 50.9527 127.826 50.3617C126.597 49.747 125.639 48.825 124.953 47.5956C124.268 46.3426 123.925 44.7705 123.925 42.8791V32.0631H128.358V42.2763C128.358 43.9785 128.736 45.2551 129.493 46.1062C130.273 46.9337 131.372 47.3474 132.791 47.3474C133.831 47.3474 134.729 47.1346 135.486 46.7091C136.266 46.2835 136.869 45.6452 137.294 44.7941C137.744 43.943 137.968 42.891 137.968 41.638V32.0631H142.401V51H138.181V45.8934L138.926 47.4538C138.287 48.6831 137.353 49.6288 136.124 50.2908C134.895 50.9291 133.547 51.2482 132.081 51.2482ZM148.205 51V32.0631H152.425V37.2761L151.928 35.7512C152.496 34.4746 153.382 33.5053 154.588 32.8433C155.817 32.1814 157.342 31.8504 159.163 31.8504V36.0704C158.974 36.0231 158.796 35.9995 158.631 35.9995C158.465 35.9758 158.3 35.964 158.134 35.964C156.456 35.964 155.12 36.4605 154.127 37.4534C153.134 38.4227 152.638 39.8767 152.638 41.8153V51H148.205ZM171.438 51.2482C169.452 51.2482 167.679 50.8345 166.119 50.0071C164.582 49.156 163.376 47.9975 162.502 46.5318C161.627 45.066 161.19 43.3993 161.19 41.5316C161.19 39.6403 161.627 37.9735 162.502 36.5314C163.376 35.0656 164.582 33.919 166.119 33.0916C167.679 32.2641 169.452 31.8504 171.438 31.8504C173.282 31.8504 174.902 32.2286 176.296 32.9852C177.715 33.718 178.791 34.8056 179.524 36.2477L176.119 38.2336C175.552 37.3352 174.854 36.6732 174.027 36.2477C173.223 35.8221 172.348 35.6094 171.403 35.6094C170.315 35.6094 169.334 35.8458 168.459 36.3186C167.585 36.7914 166.899 37.4771 166.402 38.3754C165.906 39.2502 165.658 40.3022 165.658 41.5316C165.658 42.7609 165.906 43.8248 166.402 44.7232C166.899 45.5979 167.585 46.2717 168.459 46.7445C169.334 47.2174 170.315 47.4538 171.403 47.4538C172.348 47.4538 173.223 47.241 174.027 46.8155C174.854 46.3899 175.552 45.7279 176.119 44.8296L179.524 46.8155C178.791 48.2339 177.715 49.3333 176.296 50.1134C174.902 50.87 173.282 51.2482 171.438 51.2482ZM191.979 51.2482C189.875 51.2482 188.031 50.8345 186.447 50.0071C184.887 49.156 183.669 47.9975 182.795 46.5318C181.944 45.066 181.518 43.3993 181.518 41.5316C181.518 39.6403 181.932 37.9735 182.759 36.5314C183.61 35.0656 184.769 33.919 186.234 33.0916C187.724 32.2641 189.414 31.8504 191.306 31.8504C193.15 31.8504 194.793 32.2523 196.235 33.0561C197.677 33.8599 198.812 34.9947 199.639 36.4605C200.467 37.9262 200.88 39.6521 200.88 41.638C200.88 41.8271 200.869 42.0399 200.845 42.2763C200.845 42.5127 200.833 42.7373 200.809 42.9501H185.029V40.0067H198.469L196.731 40.9287C196.755 39.8412 196.53 38.8837 196.058 38.0563C195.585 37.2288 194.935 36.5787 194.107 36.1058C193.303 35.633 192.369 35.3966 191.306 35.3966C190.218 35.3966 189.261 35.633 188.433 36.1058C187.629 36.5787 186.991 37.2406 186.518 38.0917C186.069 38.9192 185.844 39.9003 185.844 41.0351V41.7443C185.844 42.8791 186.104 43.8839 186.625 44.7586C187.145 45.6334 187.878 46.3072 188.823 46.78C189.769 47.2528 190.856 47.4892 192.086 47.4892C193.15 47.4892 194.107 47.3237 194.958 46.9928C195.809 46.6618 196.566 46.1417 197.228 45.4324L199.604 48.163C198.753 49.156 197.677 49.9243 196.377 50.4681C195.1 50.9882 193.634 51.2482 191.979 51.2482ZM213.259 51.3546C211.321 51.3546 209.465 51.0827 207.692 50.539C205.919 49.9716 204.512 49.2505 203.472 48.3758L205.067 44.7941C206.06 45.5743 207.29 46.2244 208.756 46.7445C210.221 47.2646 211.723 47.5247 213.259 47.5247C214.56 47.5247 215.612 47.3828 216.415 47.0991C217.219 46.8155 217.81 46.4372 218.188 45.9644C218.567 45.4679 218.756 44.9123 218.756 44.2976C218.756 43.5411 218.484 42.9382 217.94 42.4891C217.397 42.0162 216.687 41.6498 215.813 41.3897C214.961 41.106 214.004 40.846 212.94 40.6096C211.9 40.3731 210.848 40.1013 209.784 39.7939C208.744 39.4629 207.786 39.0492 206.911 38.5527C206.06 38.0326 205.363 37.347 204.819 36.4959C204.275 35.6448 204.004 34.5573 204.004 33.2334C204.004 31.8858 204.358 30.6565 205.067 29.5453C205.8 28.4105 206.9 27.5122 208.365 26.8502C209.855 26.1646 211.734 25.8218 214.004 25.8218C215.493 25.8218 216.971 26.0109 218.437 26.3892C219.903 26.7674 221.179 27.3112 222.267 28.0204L220.813 31.6021C219.702 30.9402 218.555 30.4555 217.373 30.1482C216.191 29.8172 215.056 29.6517 213.968 29.6517C212.692 29.6517 211.652 29.8054 210.848 30.1127C210.068 30.4201 209.488 30.822 209.11 31.3184C208.756 31.8149 208.578 32.3823 208.578 33.0206C208.578 33.7772 208.838 34.3918 209.358 34.8647C209.902 35.3139 210.6 35.6685 211.451 35.9285C212.325 36.1886 213.295 36.4486 214.359 36.7087C215.422 36.9451 216.474 37.217 217.515 37.5243C218.579 37.8317 219.536 38.2336 220.387 38.7301C221.262 39.2265 221.959 39.9003 222.479 40.7514C223.023 41.6025 223.295 42.6782 223.295 43.9785C223.295 45.3024 222.929 46.5318 222.196 47.6665C221.486 48.7777 220.387 49.6761 218.898 50.3617C217.408 51.0236 215.529 51.3546 213.259 51.3546ZM251.342 31.8504C252.855 31.8504 254.191 32.1459 255.35 32.7369C256.532 33.328 257.454 34.2382 258.116 35.4675C258.778 36.6732 259.109 38.2336 259.109 40.1485V51H254.676V40.7159C254.676 39.0374 254.309 37.7844 253.577 36.9569C252.844 36.1295 251.792 35.7158 250.42 35.7158C249.451 35.7158 248.588 35.9285 247.832 36.3541C247.099 36.7796 246.52 37.4061 246.094 38.2336C245.692 39.061 245.491 40.1131 245.491 41.3897V51H241.058V40.7159C241.058 39.0374 240.692 37.7844 239.959 36.9569C239.226 36.1295 238.174 35.7158 236.803 35.7158C235.834 35.7158 234.971 35.9285 234.214 36.3541C233.481 36.7796 232.902 37.4061 232.476 38.2336C232.075 39.061 231.874 40.1131 231.874 41.3897V51H227.441V32.0631H231.661V37.0988L230.916 35.6094C231.554 34.38 232.476 33.4462 233.682 32.8079C234.912 32.1695 236.306 31.8504 237.867 31.8504C239.64 31.8504 241.177 32.2877 242.477 33.1625C243.801 34.0372 244.675 35.3611 245.101 37.1342L243.363 36.5314C243.978 35.1129 244.995 33.9781 246.413 33.127C247.832 32.2759 249.475 31.8504 251.342 31.8504ZM276.44 51V47.1701L276.192 46.3544V39.6521C276.192 38.3518 275.802 37.347 275.022 36.6378C274.242 35.9049 273.06 35.5384 271.476 35.5384C270.412 35.5384 269.36 35.7039 268.319 36.0349C267.303 36.3659 266.44 36.8269 265.731 37.4179L263.993 34.1909C265.01 33.4107 266.215 32.8315 267.61 32.4532C269.029 32.0513 270.494 31.8504 272.007 31.8504C274.75 31.8504 276.866 32.5123 278.355 33.8363C279.868 35.1365 280.625 37.1579 280.625 39.9003V51H276.44ZM270.483 51.2482C269.064 51.2482 267.823 51.0118 266.759 50.539C265.695 50.0425 264.868 49.3687 264.277 48.5176C263.709 47.6429 263.426 46.6618 263.426 45.5743C263.426 44.5104 263.674 43.5529 264.17 42.7018C264.69 41.8507 265.53 41.1769 266.688 40.6805C267.847 40.184 269.383 39.9358 271.298 39.9358H276.795V42.8791H271.617C270.104 42.8791 269.088 43.1274 268.568 43.6238C268.048 44.0967 267.787 44.6877 267.787 45.397C267.787 46.2008 268.107 46.8391 268.745 47.3119C269.383 47.7848 270.27 48.0212 271.405 48.0212C272.492 48.0212 273.461 47.7729 274.313 47.2765C275.187 46.78 275.814 46.0471 276.192 45.0778L276.937 47.7375C276.511 48.8486 275.743 49.7115 274.632 50.3262C273.544 50.9409 272.161 51.2482 270.483 51.2482ZM286.314 51V32.0631H290.534V37.2761L290.037 35.7512C290.605 34.4746 291.491 33.5053 292.697 32.8433C293.926 32.1814 295.451 31.8504 297.272 31.8504V36.0704C297.082 36.0231 296.905 35.9995 296.74 35.9995C296.574 35.9758 296.409 35.964 296.243 35.964C294.565 35.964 293.229 36.4605 292.236 37.4534C291.243 38.4227 290.747 39.8767 290.747 41.8153V51H286.314ZM308.853 51.2482C306.772 51.2482 305.164 50.7163 304.03 49.6524C302.895 48.5649 302.327 46.9691 302.327 44.865V27.8786H306.76V44.7586C306.76 45.657 306.985 46.3544 307.434 46.8509C307.907 47.3474 308.557 47.5956 309.384 47.5956C310.377 47.5956 311.205 47.3356 311.867 46.8155L313.108 49.9716C312.588 50.3971 311.95 50.7163 311.193 50.9291C310.436 51.1418 309.656 51.2482 308.853 51.2482ZM299.207 35.7512V32.205H311.831V35.7512H299.207Z" fill="white"/>
<defs>
<linearGradient id="paint0_linear_1257_33352" x1="24.0727" y1="22.5" x2="13.5727" y2="49" gradientUnits="userSpaceOnUse">
<stop stop-color="#235EFF"/>
<stop offset="1" stop-color="#0CADFF"/>
</linearGradient>
<linearGradient id="paint1_linear_1257_33352" x1="48.5726" y1="24.4999" x2="26.5726" y2="55.4999" gradientUnits="userSpaceOnUse">
<stop stop-color="#235EFF"/>
<stop offset="1" stop-color="#0CADFF"/>
</linearGradient>
<linearGradient id="paint2_linear_1257_33352" x1="62.0726" y1="31.5" x2="54.5726" y2="52.5" gradientUnits="userSpaceOnUse">
<stop stop-color="#CC95EA"/>
<stop offset="0.525" stop-color="#235EFF"/>
<stop offset="1" stop-color="#0CADFF"/>
</linearGradient>
</defs>
</svg>
